<svg width="16" height="16" viewBox="0 0 16 16" fill="none" xmlns="http://www.w3.org/2000/svg">
<path d="M14.3333 3.42265C14.4231 3.47449 14.4996 3.54655 14.5566 3.63312C14.6137 3.71968 14.6497 3.81836 14.662 3.92131L14.6666 3.99998V12.6666C14.6666 12.7837 14.6358 12.8986 14.5773 13C14.5188 13.1013 14.4347 13.1855 14.3333 13.244C14.232 13.3025 14.117 13.3333 14 13.3333C13.883 13.3333 13.768 13.3025 13.6666 13.244C12.9113 12.8078 12.0604 12.5636 11.1887 12.5326C10.317 12.5017 9.45102 12.6851 8.66665 13.0666V2.95065C9.58756 2.60665 10.5732 2.47058 11.5528 2.55218C12.5325 2.63378 13.482 2.93104 14.3333 3.42265ZM7.33331 2.95131L7.33398 13.0673C6.58051 12.7005 5.75122 12.5164 4.91332 12.53C4.07543 12.5435 3.25252 12.7543 2.51131 13.1453L2.29331 13.2653L2.22465 13.2946L2.19198 13.3053L2.11865 13.3226L2.07798 13.3293L1.99998 13.3333H1.97198L1.89865 13.3253L1.84731 13.316L1.77531 13.2946L1.69131 13.2573L1.62798 13.22L1.56865 13.1753L1.52865 13.138L1.47998 13.0833L1.43731 13.024L1.42265 13L1.40131 12.96L1.37198 12.8913L1.36131 12.8586L1.34398 12.7853L1.33731 12.7446L1.33465 12.712L1.33331 3.99998C1.33332 3.88296 1.36412 3.768 1.42263 3.66666C1.48115 3.56531 1.5653 3.48116 1.66665 3.42265C2.51801 2.93114 3.46754 2.63401 4.44721 2.55252C5.42688 2.47104 6.41245 2.60722 7.33331 2.95131Z" fill="#333333"/>
</svg>
