<svg width="14" height="12" viewBox="0 0 14 12" fill="none" xmlns="http://www.w3.org/2000/svg">
<path d="M10.666 1.32706e-07C10.7445 -5.7074e-05 10.822 0.0183819 10.892 0.0538236C10.9621 0.0892653 11.0228 0.140713 11.0693 0.204L11.106 0.262L13.2813 4.28067L13.3067 4.34267L13.3147 4.36933L13.328 4.43733L13.332 4.5C13.3317 4.54503 13.3256 4.58983 13.314 4.63333L13.2827 4.71667L13.2573 4.76267C13.2421 4.78637 13.2254 4.80908 13.2073 4.83067L13.2473 4.77867L13.2307 4.802L7.064 11.8053C7.01338 11.874 6.9449 11.9275 6.866 11.96L6.80067 11.982L6.74867 11.9933L6.66667 12L6.6 11.996L6.52133 11.9787C6.48054 11.9671 6.44152 11.9501 6.40533 11.928L6.39933 11.9233C6.36779 11.9038 6.33869 11.8805 6.31267 11.854L0.119333 4.82333L0.102 4.802L0.0753333 4.76267C0.0376553 4.70162 0.0135543 4.63318 0.00466665 4.562L0 4.5L0.00200001 4.456L0.0106667 4.39667L0.0266666 4.33933L0.0413334 4.3L0.0599999 4.262L2.22667 0.262C2.26402 0.192972 2.3171 0.133707 2.38161 0.0890018C2.44612 0.0442961 2.52025 0.0154051 2.598 0.00466678L2.666 1.32706e-07H10.666ZM8.66467 5H4.66533L6.66533 10.1247L8.66467 5ZM3.59267 5H1.606L5.17333 9.04933L3.59267 5ZM11.7247 5H9.73867L8.16 9.04667L11.7247 5ZM4.64733 1H2.96333L1.338 4H3.68733L4.64733 1ZM7.634 1H5.69733L4.73667 4H8.59333L7.634 1ZM10.3673 1H8.684L9.644 4H11.992L10.3673 1Z" fill="#897303"/>
</svg>
