<svg width="40" height="40" viewBox="0 0 40 40" fill="none" xmlns="http://www.w3.org/2000/svg">
<g clip-path="url(#clip0_35_245)">
<path d="M20 35C19.7807 35.0013 19.5632 34.9593 19.3602 34.8763C19.1571 34.7934 18.9724 34.6712 18.8167 34.5167L5.86668 21.55C4.24228 19.9087 3.33112 17.6926 3.33112 15.3834C3.33112 13.0741 4.24228 10.8581 5.86668 9.21669C7.50378 7.58421 9.7214 6.66748 12.0333 6.66748C14.3453 6.66748 16.5629 7.58421 18.2 9.21669L20 11.0167L21.8 9.21669C23.4371 7.58421 25.6547 6.66748 27.9667 6.66748C30.2786 6.66748 32.4962 7.58421 34.1333 9.21669C35.7577 10.8581 36.6689 13.0741 36.6689 15.3834C36.6689 17.6926 35.7577 19.9087 34.1333 21.55L21.1833 34.5167C21.0276 34.6712 20.8429 34.7934 20.6399 34.8763C20.4368 34.9593 20.2194 35.0013 20 35ZM12.0333 10C11.3278 9.99683 10.6286 10.1337 9.97636 10.4026C9.32407 10.6715 8.73163 11.0672 8.23334 11.5667C7.22678 12.5786 6.66174 13.9478 6.66174 15.375C6.66174 16.8023 7.22678 18.1715 8.23334 19.1834L20 30.9667L31.7667 19.1834C32.7732 18.1715 33.3383 16.8023 33.3383 15.375C33.3383 13.9478 32.7732 12.5786 31.7667 11.5667C30.7395 10.5962 29.3798 10.0555 27.9667 10.0555C26.5535 10.0555 25.1939 10.5962 24.1667 11.5667L21.1833 14.5667C21.0284 14.7229 20.8441 14.8469 20.641 14.9315C20.4379 15.0161 20.22 15.0597 20 15.0597C19.78 15.0597 19.5621 15.0161 19.3591 14.9315C19.156 14.8469 18.9716 14.7229 18.8167 14.5667L15.8333 11.5667C15.3351 11.0672 14.7426 10.6715 14.0903 10.4026C13.438 10.1337 12.7389 9.99683 12.0333 10Z" fill="#D13D3D"/>
</g>
<defs>
<clipPath id="clip0_35_245">
<rect width="40" height="40" fill="white"/>
</clipPath>
</defs>
</svg>
