<svg width="16" height="16" viewBox="0 0 16 16" fill="none" xmlns="http://www.w3.org/2000/svg">
<path d="M2.66669 12.6666V6.66665C2.66669 6.45553 2.71402 6.25554 2.80869 6.06665C2.90335 5.87776 3.0338 5.7222 3.20002 5.59998L7.20002 2.59998C7.43335 2.4222 7.70002 2.33331 8.00002 2.33331C8.30002 2.33331 8.56669 2.4222 8.80002 2.59998L12.8 5.59998C12.9667 5.7222 13.0974 5.87776 13.192 6.06665C13.2867 6.25554 13.3338 6.45553 13.3334 6.66665V12.6666C13.3334 13.0333 13.2027 13.3473 12.9414 13.6086C12.68 13.87 12.3662 14.0004 12 14H10C9.81113 14 9.65291 13.936 9.52535 13.808C9.3978 13.68 9.3338 13.5218 9.33335 13.3333V9.99998C9.33335 9.81109 9.26935 9.65287 9.14135 9.52531C9.01335 9.39776 8.85513 9.33376 8.66669 9.33331H7.33335C7.14446 9.33331 6.98624 9.39731 6.85869 9.52531C6.73113 9.65331 6.66713 9.81153 6.66669 9.99998V13.3333C6.66669 13.5222 6.60269 13.6806 6.47469 13.8086C6.34669 13.9366 6.18846 14.0004 6.00002 14H4.00002C3.63335 14 3.31958 13.8695 3.05869 13.6086C2.7978 13.3478 2.66713 13.0338 2.66669 12.6666Z" fill="#333333"/>
</svg>
