<svg width="15" height="15" viewBox="0 0 15 15" fill="none" xmlns="http://www.w3.org/2000/svg">
<path d="M5.76199 14.0833C5.43532 13.0182 4.94254 12.2241 4.28365 11.701C3.29532 10.9167 1.72499 11.4043 1.14499 10.595C0.564987 9.78567 1.55132 8.29767 1.89732 7.41967C2.24332 6.54167 0.570653 6.23133 0.765987 5.982C0.895987 5.81578 1.74143 5.33622 3.30232 4.54333C3.74565 2.01444 5.38354 0.75 8.21599 0.75C12.4647 0.75 14.0833 4.352 14.0833 6.64333C14.0833 8.934 12.1233 11.402 9.33132 11.9343C9.08176 12.2979 9.44177 13.0142 10.4113 14.0833" stroke="#6334C1" stroke-width="1.5" stroke-linecap="round" stroke-linejoin="round"/>
<path d="M5.91666 4.25012C5.69866 5.09479 5.76344 5.68801 6.111 6.02979C6.45833 6.37134 7.05033 6.59468 7.887 6.69979C7.697 7.78934 7.92844 8.30045 8.58133 8.23312C9.234 8.16601 9.62622 7.8949 9.758 7.41979C10.778 7.70645 11.3309 7.46645 11.4167 6.69979C11.545 5.54979 10.925 4.63279 10.6707 4.63279C10.4163 4.63279 9.758 4.60179 9.758 4.25012C9.758 3.89845 8.98866 3.70012 8.29433 3.70012C7.6 3.70012 8.01767 3.23179 7.06433 3.41679C6.42878 3.54012 6.04622 3.8179 5.91666 4.25012Z" stroke="#6334C1" stroke-width="1.5" stroke-linejoin="round"/>
<path d="M9.58332 7.91675C9.24432 8.12708 8.77932 8.47675 8.58332 8.75008C8.09365 9.43341 7.69665 9.84942 7.60999 10.2861" stroke="#6334C1" stroke-width="1.5" stroke-linecap="round"/>
</svg>
