<svg width="14" height="14" viewBox="0 0 14 14" fill="none" xmlns="http://www.w3.org/2000/svg">
<path d="M11.97 8.87246L10.92 7.81662V5.21496C10.934 4.24886 10.5979 3.31032 9.97391 2.57265C9.34989 1.83499 8.48005 1.348 7.525 1.20163C6.97073 1.12863 6.40726 1.17468 5.87219 1.33671C5.33712 1.49874 4.84276 1.77301 4.42209 2.14124C4.00142 2.50946 3.66412 2.96316 3.43269 3.47207C3.20126 3.98098 3.08102 4.5334 3.08 5.09246V7.81662L2.03 8.87246C1.89811 9.00655 1.80868 9.17653 1.77287 9.36117C1.73706 9.54581 1.75647 9.73691 1.82868 9.91058C1.90089 10.0842 2.02268 10.2328 2.17884 10.3376C2.335 10.4424 2.51859 10.4989 2.70667 10.5H4.66667V10.6983C4.69392 11.2905 4.95481 11.8477 5.39218 12.2479C5.82954 12.6481 6.40772 12.8586 7 12.8333C7.59229 12.8586 8.17046 12.6481 8.60783 12.2479C9.0452 11.8477 9.30609 11.2905 9.33334 10.6983V10.5H11.2933C11.4814 10.4989 11.665 10.4424 11.8212 10.3376C11.9773 10.2328 12.0991 10.0842 12.1713 9.91058C12.2435 9.73691 12.2629 9.54581 12.2271 9.36117C12.1913 9.17653 12.1019 9.00655 11.97 8.87246ZM8.16667 10.6983C8.13432 10.9789 7.99496 11.2362 7.77763 11.4165C7.56029 11.5969 7.28174 11.6865 7 11.6666C6.71826 11.6865 6.43971 11.5969 6.22238 11.4165C6.00504 11.2362 5.86569 10.9789 5.83333 10.6983V10.5H8.16667V10.6983ZM3.21417 9.33329L3.9025 8.64496C4.01168 8.53642 4.0983 8.40736 4.15737 8.26519C4.21644 8.12302 4.24679 7.97057 4.24667 7.81662V5.09246C4.24699 4.69894 4.33148 4.31005 4.49446 3.95187C4.65745 3.5937 4.89517 3.27453 5.19167 3.01579C5.48416 2.75077 5.83075 2.55248 6.20745 2.43464C6.58415 2.31679 6.98195 2.28221 7.37334 2.33329C8.04795 2.44283 8.66028 2.79238 9.09761 3.3176C9.53493 3.84281 9.76779 4.50833 9.75333 5.19163V7.81662C9.75245 7.97017 9.78188 8.12237 9.83994 8.26452C9.89799 8.40666 9.98354 8.53594 10.0917 8.64496L10.7858 9.33329H3.21417Z" fill="#D13D3D"/>
</svg>
