<svg width="12" height="14" viewBox="0 0 12 14" fill="none" xmlns="http://www.w3.org/2000/svg">
<path d="M0 12V9.33333C0 8.41111 0.325111 7.62511 0.975333 6.97533C1.62556 6.32556 2.41156 6.00044 3.33333 6H10.4833C10.9056 6 11.264 6.14444 11.5587 6.43333C11.8533 6.72222 12.0004 7.07778 12 7.5C12 7.84444 11.8944 8.15289 11.6833 8.42533C11.4722 8.69778 11.2056 8.87822 10.8833 8.96667L9.33333 9.41667V12C9.33333 12.2333 9.28067 12.4444 9.17533 12.6333C9.07 12.8222 8.92822 12.9778 8.75 13.1C8.57178 13.2222 8.37733 13.2973 8.16667 13.3253C7.956 13.3533 7.73933 13.3227 7.51667 13.2333L4.36667 12H0ZM8 10H4.25C4.17222 10 4.114 10.0222 4.07533 10.0667C4.03667 10.1111 4.01156 10.1611 4 10.2167C3.98844 10.2722 3.99689 10.3251 4.02533 10.3753C4.05378 10.4256 4.10089 10.4616 4.16667 10.4833L8 12V10ZM1.33333 10.6667H2.73333C2.71111 10.6 2.69444 10.5333 2.68333 10.4667C2.67222 10.4 2.66667 10.3278 2.66667 10.25C2.66667 9.81667 2.82222 9.44444 3.13333 9.13333C3.44444 8.82222 3.81667 8.66667 4.25 8.66667H6.96667L10.5333 7.68333C10.5889 7.66111 10.6278 7.63333 10.65 7.6C10.6722 7.56667 10.6778 7.52778 10.6667 7.48333C10.6556 7.43889 10.636 7.40289 10.608 7.37533C10.58 7.34778 10.5384 7.33378 10.4833 7.33333H3.33333C2.77778 7.33333 2.30556 7.52778 1.91667 7.91667C1.52778 8.30556 1.33333 8.77778 1.33333 9.33333V10.6667ZM2.78333 4.55C2.26111 4.02778 2 3.4 2 2.66667C2 1.93333 2.26111 1.30556 2.78333 0.783333C3.30556 0.261111 3.93333 0 4.66667 0C5.4 0 6.02778 0.261111 6.55 0.783333C7.07222 1.30556 7.33333 1.93333 7.33333 2.66667C7.33333 3.4 7.07222 4.02778 6.55 4.55C6.02778 5.07222 5.4 5.33333 4.66667 5.33333C3.93333 5.33333 3.30556 5.07222 2.78333 4.55ZM5.60867 3.60867C5.86956 3.34733 6 3.03333 6 2.66667C6 2.3 5.86956 1.98622 5.60867 1.72533C5.34778 1.46444 5.03378 1.33378 4.66667 1.33333C4.29956 1.33289 3.98578 1.46356 3.72533 1.72533C3.46489 1.98711 3.33422 2.30089 3.33333 2.66667C3.33244 3.03244 3.46311 3.34644 3.72533 3.60867C3.98756 3.87089 4.30133 4.00133 4.66667 4C5.032 3.99867 5.346 3.86822 5.60867 3.60867Z" fill="#897303"/>
</svg>
