<svg width="40" height="40" viewBox="0 0 40 40" fill="none" xmlns="http://www.w3.org/2000/svg">
<path d="M24.5633 24.4799C24.9099 24.1321 25.0833 23.7221 25.0833 23.2499C25.0833 22.7777 24.9099 22.3683 24.5633 22.0216C24.2166 21.6749 23.8066 21.501 23.3333 21.4999C22.8599 21.4988 22.4505 21.6727 22.1049 22.0216C21.7594 22.3705 21.5855 22.7799 21.5833 23.2499C21.581 23.7199 21.7549 24.1299 22.1049 24.4799C22.4549 24.8299 22.8644 25.0033 23.3333 24.9999C23.8021 24.9966 24.2121 24.8233 24.5633 24.4799ZM22.0833 19.6666H24.5833C24.5833 18.861 24.6666 18.271 24.8333 17.8966C24.9999 17.5221 25.3888 17.0288 25.9999 16.4166C26.8333 15.5833 27.3888 14.9099 27.6666 14.3966C27.9444 13.8833 28.0833 13.2788 28.0833 12.5833C28.0833 11.3333 27.6455 10.3127 26.7699 9.52158C25.8944 8.73047 24.7488 8.33436 23.3333 8.33325C22.1944 8.33325 21.2016 8.6527 20.3549 9.29158C19.5083 9.93047 18.9177 10.7777 18.5833 11.8333L20.8333 12.7499C21.0833 12.0555 21.4238 11.5349 21.8549 11.1883C22.286 10.8416 22.7788 10.6677 23.3333 10.6666C23.9999 10.6666 24.5416 10.8544 24.9583 11.2299C25.3749 11.6055 25.5833 12.1121 25.5833 12.7499C25.5833 13.1388 25.4721 13.5071 25.2499 13.8549C25.0277 14.2027 24.6388 14.6399 24.0833 15.1666C23.1666 15.9721 22.6044 16.6044 22.3966 17.0633C22.1888 17.5221 22.0844 18.3899 22.0833 19.6666ZM13.3333 29.9999C12.4166 29.9999 11.6321 29.6738 10.9799 29.0216C10.3277 28.3694 10.001 27.5844 9.99992 26.6666V6.66659C9.99992 5.74992 10.3266 4.96547 10.9799 4.31325C11.6333 3.66103 12.4177 3.33436 13.3333 3.33325H33.3333C34.2499 3.33325 35.0349 3.65992 35.6883 4.31325C36.3416 4.96659 36.6677 5.75103 36.6666 6.66659V26.6666C36.6666 27.5833 36.3405 28.3683 35.6883 29.0216C35.036 29.6749 34.251 30.001 33.3333 29.9999H13.3333ZM6.66659 36.6666C5.74992 36.6666 4.96547 36.3405 4.31325 35.6883C3.66103 35.036 3.33436 34.251 3.33325 33.3333V9.99992H6.66659V33.3333H29.9999V36.6666H6.66659Z" fill="white"/>
</svg>
