<svg width="40" height="40" viewBox="0 0 40 40" fill="none" xmlns="http://www.w3.org/2000/svg">
<path d="M35.6644 12.6363L36.3075 11.575C36.3075 11.575 36.8737 10.6363 36.8737 9.37563C36.8737 6.32188 33.96 6.4025 33.96 6.4025L27.6119 4.67438L24.1488 1.25L19.5919 2.49062L18.0975 2.08375L16.9619 3.20688L10.4012 4.99312C10.4012 4.99312 7.87625 4.92375 7.87625 7.57C7.87625 8.6625 8.3675 9.47625 8.3675 9.47625L9.21187 10.87L8.47 11.6025L4.8075 12.6C4.8075 12.6 1.89375 12.5194 1.89375 15.5731C1.89958 16.2846 2.06601 16.9856 2.38063 17.6238L1.25 18.7419L1.84312 18.9769C1.85625 19.0088 1.86125 19.0444 1.88688 19.07C3.03375 20.2194 2.93938 21.7631 2.77562 22.5969L2.0825 23.2912L7.33313 25.8156L14.5444 37.7188C15.7 39.535 18.1531 38.3988 18.1531 38.3988L36.6838 29.4888L35.9906 28.7944C35.8269 27.9606 35.7325 26.4169 36.8794 25.2669C36.905 25.2412 36.91 25.2056 36.9231 25.1744L37.5163 24.9388L34.0706 21.5325L38.0269 19.6306L37.4263 19.0287C37.2844 18.3062 37.2025 16.9681 38.1969 15.9719C38.2188 15.9494 38.2225 15.9194 38.2344 15.8913L38.75 15.6869L35.6644 12.6363ZM32.1112 7.11438L31.33 8.35063L29.3088 6.35188L32.1112 7.11438ZM24.485 4.465L27.3869 7.56688L16.8938 11.3587L14.4156 7.51125L24.485 4.465ZM9.84 11.9075L17.0006 23.7269L3.35875 18.3156L9.84 11.9075ZM6.85563 13.1994L6.015 14.0306L5.67875 13.515L6.85563 13.1994ZM4.20125 13.8456L4.98375 15.05L3.28813 16.7262C3.15487 16.3562 3.08493 15.9664 3.08125 15.5731C3.08125 14.4319 3.6475 13.9975 4.20125 13.8456ZM3.22125 23.1413L3.23063 23.105L18.9475 29.9844L3.35375 22.5506C3.36813 22.4663 3.37937 22.3731 3.39125 22.2794L15.5994 27.3919L3.43375 21.6944C3.43612 21.434 3.41815 21.1738 3.38 20.9163L14.6794 25.5694L3.22812 20.25C3.15482 20.0037 3.05638 19.7656 2.93438 19.5394L18.4862 26.18L18.84 26.7637C19.5694 27.91 20.8925 27.6981 21.5594 27.4994C22.4812 27.9544 24.1338 29.0069 23.7106 30.5575C23.4875 31.3775 22.9969 31.775 22.2112 31.775C21.4156 31.775 20.6213 31.3588 20.6131 31.3531L3.22125 23.1413ZM18.875 31.3656L17.6462 31.8744L16.6025 30.2725L18.875 31.3656ZM14.1163 34.7288L9.28563 26.7544L14.0869 29.0625L16.3575 32.5575C15.4419 32.9487 14.4187 33.8419 14.1163 34.7288ZM35.3869 27.1138C35.3487 27.3713 35.3308 27.6315 35.3331 27.8919L23.1675 33.5894L35.3756 28.4769C35.3875 28.57 35.3981 28.6638 35.4131 28.7481L19.8194 36.1825L35.5363 29.3031L35.5456 29.3394L18.1537 37.55C18.1456 37.5556 17.3525 37.9719 16.5556 37.9719C15.7694 37.9719 15.2794 37.5737 15.0562 36.7544C14.4825 34.65 17.745 33.4569 17.7937 33.4388L20.6531 32.2188C20.96 32.3494 23.1494 33.2088 24.2225 31.5219L24.8994 30.4056L35.8331 25.7369C35.7109 25.963 35.6123 26.2012 35.5387 26.4475L24.0875 31.7669L35.3869 27.1138ZM35.4081 24.5131L26.1425 28.3531L28.7138 24.1088L32.9431 22.0756L35.4081 24.5131ZM36.9038 17.5713C36.8708 17.7945 36.8551 18.02 36.8569 18.2456L26.3144 23.1831L36.8944 18.7525C36.905 18.8331 36.9137 18.915 36.9269 18.9875L23.4119 25.43L37.0331 19.4681L37.0412 19.4994L21.9681 26.6162C21.9612 26.6206 21.2731 26.9819 20.5831 26.9819C19.9012 26.9819 19.4769 26.6362 19.2838 25.9262C18.7862 24.1025 21.6138 23.0687 21.6562 23.0531L37.29 16.3781C37.1847 16.5745 37.0995 16.7809 37.0356 16.9944L27.1106 21.6044L36.9038 17.5713Z" fill="black"/>
</svg>
