<svg width="16" height="16" viewBox="0 0 16 16" fill="none" xmlns="http://www.w3.org/2000/svg">
<path d="M9.66402 1.33331H6.33069C6.06547 1.33331 5.81112 1.43867 5.62358 1.62621C5.43605 1.81374 5.33069 2.0681 5.33069 2.33331C5.33069 2.59853 5.43605 2.85288 5.62358 3.04042C5.81112 3.22796 6.06547 3.33331 6.33069 3.33331H9.66402C9.92924 3.33331 10.1836 3.22796 10.3711 3.04042C10.5587 2.85288 10.664 2.59853 10.664 2.33331C10.664 2.0681 10.5587 1.81374 10.3711 1.62621C10.1836 1.43867 9.92924 1.33331 9.66402 1.33331Z" stroke="#333333" stroke-width="1.5" stroke-linecap="round" stroke-linejoin="round"/>
<path d="M10.664 2.33331C11.7 2.36465 12.3173 2.47998 12.7447 2.90798C13.3313 3.49331 13.3313 4.43598 13.3313 6.32131V10.6666C13.3313 12.552 13.3313 13.4946 12.7447 14.0806C12.1593 14.6666 11.216 14.6666 9.33133 14.6666H6.66467C4.778 14.6666 3.83533 14.6666 3.25 14.0806C2.66467 13.4946 2.664 12.552 2.664 10.6666V6.32198C2.664 4.43665 2.664 3.49331 3.25 2.90798C3.67733 2.47998 4.29533 2.36465 5.33067 2.33331" stroke="#333333" stroke-width="1.5" stroke-linecap="round" stroke-linejoin="round"/>
<path d="M4.99731 7.33331L5.66398 7.99998L6.99731 6.33331M8.99998 11.3333H11M8.99998 7.33331H11M5.74998 11.3333H5.66665M5.83331 11.3333C5.83331 11.3775 5.81576 11.4199 5.7845 11.4512C5.75324 11.4824 5.71085 11.5 5.66665 11.5C5.62245 11.5 5.58005 11.4824 5.5488 11.4512C5.51754 11.4199 5.49998 11.3775 5.49998 11.3333C5.49998 11.2891 5.51754 11.2467 5.5488 11.2155C5.58005 11.1842 5.62245 11.1666 5.66665 11.1666C5.71085 11.1666 5.75324 11.1842 5.7845 11.2155C5.81576 11.2467 5.83331 11.2891 5.83331 11.3333Z" stroke="#333333" stroke-width="1.5" stroke-linecap="round" stroke-linejoin="round"/>
</svg>
