<svg width="16" height="16" viewBox="0 0 16 16" fill="none" xmlns="http://www.w3.org/2000/svg">
<path d="M4 12.6666V12C4 11.2927 4.28095 10.6145 4.78105 10.1144C5.28115 9.61426 5.95942 9.33331 6.66667 9.33331H9.33333C10.0406 9.33331 10.7189 9.61426 11.219 10.1144C11.719 10.6145 12 11.2927 12 12V12.6666M10 5.33331C10 5.86375 9.78929 6.37245 9.41421 6.74753C9.03914 7.1226 8.53043 7.33331 8 7.33331C7.46957 7.33331 6.96086 7.1226 6.58579 6.74753C6.21071 6.37245 6 5.86375 6 5.33331C6 4.80288 6.21071 4.29417 6.58579 3.9191C6.96086 3.54403 7.46957 3.33331 8 3.33331C8.53043 3.33331 9.03914 3.54403 9.41421 3.9191C9.78929 4.29417 10 4.80288 10 5.33331Z" stroke="#333333" stroke-width="1.5" stroke-linecap="round"/>
</svg>
