<svg width="16" height="16" viewBox="0 0 16 16" fill="none" xmlns="http://www.w3.org/2000/svg">
<path d="M2 12.6667V12C2 11.2928 2.28095 10.6145 2.78105 10.1144C3.28115 9.61429 3.95942 9.33334 4.66667 9.33334H7.33333C8.04058 9.33334 8.71885 9.61429 9.21895 10.1144C9.71905 10.6145 10 11.2928 10 12V12.6667M14 12.6667V12C14 11.2928 13.719 10.6145 13.219 10.1144C12.7189 9.61429 12.0406 9.33334 11.3333 9.33334M9.66667 3.44667C9.96827 3.34041 10.291 3.30801 10.6077 3.35219C10.9244 3.39638 11.2259 3.51587 11.4869 3.70064C11.7479 3.8854 11.9608 4.13006 12.1077 4.41408C12.2546 4.69811 12.3313 5.01323 12.3313 5.33301C12.3313 5.65279 12.2546 5.96791 12.1077 6.25193C11.9608 6.53596 11.7479 6.78062 11.4869 6.96538C11.2259 7.15015 10.9244 7.26963 10.6077 7.31382C10.291 7.35801 9.96827 7.32561 9.66667 7.21934M8 5.33334C8 5.86377 7.78929 6.37248 7.41421 6.74755C7.03914 7.12263 6.53043 7.33334 6 7.33334C5.46957 7.33334 4.96086 7.12263 4.58579 6.74755C4.21071 6.37248 4 5.86377 4 5.33334C4 4.80291 4.21071 4.2942 4.58579 3.91913C4.96086 3.54406 5.46957 3.33334 6 3.33334C6.53043 3.33334 7.03914 3.54406 7.41421 3.91913C7.78929 4.2942 8 4.80291 8 5.33334Z" stroke="#333333" stroke-width="1.5" stroke-linecap="round"/>
</svg>
